<?xml version="1.0" encoding="UTF-8" standalone="no"?>
<!-- Created with Inkscape (http://www.inkscape.org/) -->

<svg
   xmlns:dc="http://purl.org/dc/elements/1.1/"
   xmlns:cc="http://creativecommons.org/ns#"
   xmlns:rdf="http://www.w3.org/1999/02/22-rdf-syntax-ns#"
   xmlns:svg="http://www.w3.org/2000/svg"
   xmlns="http://www.w3.org/2000/svg"
   xmlns:sodipodi="http://sodipodi.sourceforge.net/DTD/sodipodi-0.dtd"
   xmlns:inkscape="http://www.inkscape.org/namespaces/inkscape"
   width="346.7915"
   height="248.80632"
   viewBox="0 0 91.75525 65.830007"
   version="1.1"
   id="svg8"
   inkscape:version="0.92.5 (2060ec1f9f, 2020-04-08)"
   sodipodi:docname="logo-votes-counter.svg">
  <defs
     id="defs2" />
  <sodipodi:namedview
     id="base"
     pagecolor="#ffffff"
     bordercolor="#666666"
     borderopacity="1.0"
     inkscape:pageopacity="0.0"
     inkscape:pageshadow="2"
     inkscape:zoom="0.98994949"
     inkscape:cx="-168.91863"
     inkscape:cy="74.312921"
     inkscape:document-units="px"
     inkscape:current-layer="layer1"
     showgrid="false"
     fit-margin-top="20"
     units="px"
     fit-margin-left="20"
     fit-margin-right="20"
     fit-margin-bottom="20"
     inkscape:window-width="1920"
     inkscape:window-height="1052"
     inkscape:window-x="0"
     inkscape:window-y="28"
     inkscape:window-maximized="1" />
  <metadata
     id="metadata5">
    <rdf:RDF>
      <cc:Work
         rdf:about="">
        <dc:format>image/svg+xml</dc:format>
        <dc:type
           rdf:resource="http://purl.org/dc/dcmitype/StillImage" />
        <dc:title></dc:title>
      </cc:Work>
    </rdf:RDF>
  </metadata>
  <g
     inkscape:label="Layer 1"
     inkscape:groupmode="layer"
     id="layer1"
     transform="translate(-51.087095,-127.7557)">
    <path
       style="fill:#22002c;fill-opacity:1;stroke-width:0.26458335"
       d="m 59.020969,185.7805 v -2.51354 h -1.005417 c -0.552979,0 -1.148291,-0.14287 -1.322916,-0.3175 -0.225557,-0.22556 -0.316435,-1.81541 -0.31382,-5.4901 l 0.0037,-5.17261 4.125453,-6.28385 4.125453,-6.28386 h 8.405401 8.40539 l 0.56528,-1.78594 c 0.3109,-0.98226 1.62065,-5.45605 2.91055,-9.94174 1.2899,-4.4857 2.47895,-8.28949 2.64234,-8.45289 0.32066,-0.32065 1.32386,-0.15869 4.55023,0.73461 l 1.73851,0.48134 2.8917,-1.34106 c 4.794227,-2.22339 5.215907,-2.31966 10.035457,-2.29118 3.64143,0.0215 4.80674,0.1416 8.33437,0.85883 2.25558,0.45859 4.17901,0.83428 4.2743,0.83487 0.0953,5.9e-4 0.11272,-0.45035 0.0387,-1.00209 -0.0891,-0.66457 -0.0137,-1.09978 0.22362,-1.2894 0.79541,-0.63567 8.28784,-3.55063 8.93346,-3.4756 0.85735,0.0996 1.02338,0.43631 5.56975,11.29432 1.91241,4.56735 3.44118,8.55595 3.39728,8.86354 -0.0639,0.44743 -0.89986,0.91271 -4.18087,2.32686 -4.52207,1.94907 -5.66567,2.16972 -6.11654,1.18017 l -0.28436,-0.62411 -1.76049,0.88785 c -3.11939,1.57317 -4.26889,1.76229 -10.88861,1.79143 -3.27422,0.0144 -6.10195,0.12206 -6.28385,0.23923 -0.92213,0.59396 0.0391,0.71096 5.84086,0.71096 6.06552,0 6.18076,0.0102 6.7057,0.59532 0.29376,0.32742 2.21951,3.18991 4.27945,6.3611 l 3.74534,5.76579 v 4.97497 c 0,5.54592 -0.0941,5.85074 -1.80677,5.85074 h -0.83906 v 2.51354 2.51354 h -1.19063 -1.19062 v -2.51354 -2.51354 H 92.490763 61.402219 v 2.51354 2.51354 h -1.190625 -1.190625 z m 67.204161,-8.33437 v -3.43959 H 92.490763 58.756386 v 3.43959 3.43958 h 33.734377 33.734367 z m -4.17447,-10.58459 -3.10157,-4.76376 -6.07393,0.0674 -6.07393,0.0674 -0.30156,1.05833 c -0.16585,0.58208 -0.38165,1.38575 -0.47954,1.78594 l -0.178,0.7276 h 3.12713 c 2.07943,0 3.2335,0.10637 3.44462,0.3175 0.40812,0.40812 0.40812,1.33813 0,1.74625 -0.41997,0.41997 -38.869717,0.46226 -39.651967,0.0436 -0.57207,-0.30616 -0.68035,-1.30379 -0.19428,-1.78986 0.2138,-0.2138 1.42123,-0.3175 3.69678,-0.3175 h 3.37927 l 0.44017,-1.52135 c 0.2421,-0.83675 0.49629,-1.67019 0.56487,-1.85209 0.0979,-0.25967 -1.46527,-0.33073 -7.27571,-0.33073 h -7.400409 l -2.880505,4.40968 c -1.584278,2.42532 -2.975718,4.56844 -3.09209,4.7625 -0.175878,0.29328 5.303692,0.35282 32.470324,0.35282 h 32.681897 z m -18.05216,-3.60528 c 0.39722,-1.32875 0.79575,-2.70891 0.88563,-3.06701 l 0.16341,-0.6511 -1.91276,0.37202 c -2.481,0.48253 -4.738197,0.33769 -5.686637,-0.36489 -1.30805,-0.96896 -1.91467,-2.14598 -1.91467,-3.71497 0,-1.67682 0.42301,-2.61011 1.68541,-3.71851 0.9778,-0.85852 1.17745,-0.91535 7.215977,-2.05381 l 3.74202,-0.70549 0.16242,-0.81212 c 0.0893,-0.44666 0.10601,-0.86853 0.0371,-0.93748 -0.37626,-0.37626 -19.069737,-5.54562 -19.213417,-5.31315 -0.091,0.14718 -1.21246,3.92062 -2.49222,8.38542 -1.27976,4.46481 -2.71116,9.30846 -3.1809,10.76367 -0.46973,1.4552 -0.9384,3.03416 -1.04148,3.50878 l -0.18743,0.86295 10.50769,-0.0692 10.507677,-0.0692 z m 0.56159,-6.08694 c 3.11077,-0.61285 4.26451,-0.70384 9.49421,-0.74873 4.88915,-0.042 6.2132,-0.13535 7.40833,-0.5225 1.32197,-0.42824 3.2926,-1.34647 4.18692,-1.95092 0.27475,-0.18571 -0.20008,-1.54813 -2.19835,-6.30764 l -2.54881,-6.07077 -5.20998,-1.02001 c -8.74201,-1.71151 -11.87381,-1.62698 -16.508977,0.44557 l -1.8251,0.81607 6.826627,1.96188 c 7.90305,2.27124 8.28184,2.4837 8.28184,4.64532 0,1.10761 -0.11923,1.41093 -0.80722,2.05362 -0.98277,0.91804 -0.584,0.804 -6.8657,1.96349 -2.83765,0.52379 -5.414107,1.08043 -5.725457,1.23699 -1.23776,0.6224 -1.51043,2.53968 -0.50427,3.54583 0.83486,0.83487 1.542507,0.82918 5.995937,-0.0482 z m 29.95716,-4.8569 c 0.19366,-0.18139 -6.20268,-15.97758 -6.66271,-16.454 -0.21369,-0.22131 -5.40024,1.96792 -5.52108,2.33044 -0.0709,0.21283 6.18243,15.44994 6.6536,16.2123 0.13389,0.21664 5.05213,-1.64097 5.53019,-2.08874 z m -23.63795,-3.98316 c 0,-0.47769 -0.47674,-0.48096 -0.60143,-0.004 -0.0927,0.35454 -0.0224,0.46417 0.2345,0.36559 0.20181,-0.0774 0.36693,-0.2401 0.36693,-0.36146 z"
       id="path1158"
       inkscape:connector-curvature="0" />
  </g>
</svg>
